<svg version="1.1" id="Layer_1" xmlns="http://www.w3.org/2000/svg" xmlns:xlink="http://www.w3.org/1999/xlink" x="0px" y="0px"
	 width="100%" viewBox="0 0 1024 1024" enable-background="new 0 0 1024 1024" xml:space="preserve">
<path fill="#000000" opacity="1.000000" stroke="none" 
	d="
M536.868164,482.222473 
	C483.933929,480.063202 431.426575,479.126892 378.975433,476.804199 
	C427.310974,476.804199 475.659058,476.116425 523.978516,476.997894 
	C572.162354,477.876923 620.095093,484.057556 668.419128,486.836639 
	C668.156189,483.572144 666.764343,483.476898 665.419067,483.371307 
	C648.170288,482.017242 630.913513,480.757690 613.673279,479.302216 
	C593.613037,477.608643 573.568542,475.730103 553.514587,473.961060 
	C539.594788,472.733185 525.692322,471.072449 511.744324,470.441589 
	C463.652527,468.266388 415.529114,467.065155 367.384186,467.071411 
	C363.040680,467.071991 360.757477,465.677551 359.532715,461.355438 
	C357.550262,454.359741 354.937317,447.542694 352.137970,439.320740 
	C394.416138,441.093140 435.785522,440.230194 476.828888,446.474884 
	C517.753723,452.701508 558.707092,458.740845 599.685059,464.634430 
	C558.947632,456.259399 518.089233,448.636322 476.823364,443.260590 
	C435.507782,437.878479 393.716064,439.949127 352.077271,435.540436 
	C353.043915,433.262299 354.565369,433.790924 355.759125,433.755463 
	C389.566162,432.750183 423.392426,432.040894 457.198090,432.791443 
	C475.643829,433.200989 493.904022,436.665436 512.213623,439.087158 
	C539.629395,442.713318 566.606445,448.606598 593.623108,454.310150 
	C597.379272,455.103119 598.833313,454.217834 598.743591,450.249756 
	C598.515747,440.169769 599.775085,441.822296 590.625061,438.968689 
	C560.280945,429.505249 530.023499,419.700134 498.671143,413.927704 
	C482.019196,410.861908 465.270996,410.875488 448.421600,411.759033 
	C432.790833,412.578705 417.123932,412.841034 401.469421,412.995392 
	C396.796692,413.041473 394.741333,414.267059 395.248871,419.226562 
	C395.641144,423.059784 395.327148,426.965302 394.781006,430.879211 
	C392.857452,424.762421 392.161774,418.479950 391.857147,412.169373 
	C391.717041,409.267181 394.457581,409.434906 396.260803,409.231628 
	C403.699829,408.393127 411.153992,407.643524 418.619843,407.097626 
	C435.383209,405.871796 452.144165,404.524658 468.929626,403.712433 
	C488.811707,402.750366 507.997742,407.381775 526.950684,412.535583 
	C550.263184,418.874847 572.984314,427.087250 595.356934,436.215363 
	C602.560425,439.154419 602.500366,439.261139 601.612976,446.834351 
	C601.439026,448.319153 601.529907,449.835968 601.340515,451.317810 
	C600.887329,454.863007 602.497131,456.177826 605.933228,456.932098 
	C626.247253,461.391205 646.506409,466.100586 666.778198,470.751129 
	C673.549500,472.304474 673.293457,472.379456 673.135742,479.445892 
	C672.911926,489.477234 668.784058,498.126648 664.341797,506.727051 
	C663.828674,507.720398 663.394592,508.910675 661.549683,509.086731 
	C662.216431,504.126617 665.593689,500.095825 666.093140,494.497650 
	C623.008179,490.397736 580.172852,486.321594 536.868164,482.222473 
z"/>
<path fill="#000000" opacity="1.000000" stroke="none" 
	d="
M494.046143,572.191101 
	C466.067383,566.775513 440.116699,556.067322 413.353729,548.066589 
	C384.737671,539.511902 355.856262,532.444214 325.588226,534.344788 
	C325.300171,534.362854 324.995850,534.122253 324.293152,533.838440 
	C325.411987,531.445068 327.780823,530.920166 329.745667,530.072327 
	C345.126007,523.435791 361.405945,521.198547 377.960999,520.760071 
	C407.146423,519.987061 435.524963,525.428833 463.762299,532.107727 
	C501.287567,540.983459 539.296814,546.528015 577.937439,545.555725 
	C605.261902,544.868164 631.899048,540.379883 656.310303,526.848694 
	C672.957153,517.621216 686.328491,504.894104 697.427307,489.592651 
	C698.755249,487.761871 699.734802,485.579193 702.216797,484.270996 
	C703.336487,486.385742 702.287720,488.252502 701.837219,489.984222 
	C694.950684,516.456787 679.805786,537.091125 657.199036,552.258057 
	C634.984314,567.161987 610.015503,574.126038 583.753601,577.364441 
	C553.662659,581.075073 523.992798,578.076660 494.046143,572.191101 
z"/>
<path fill="#000000" opacity="1.000000" stroke="none" 
	d="
M563.531128,410.551483 
	C545.735657,403.517883 528.654785,395.865570 512.287903,386.518463 
	C527.994995,389.983093 542.882446,395.912323 558.877075,401.827026 
	C557.659363,394.067413 556.632568,387.397980 555.552307,380.737213 
	C555.308899,379.236389 553.987183,378.676788 552.811646,378.048737 
	C539.272034,370.815033 525.430420,364.187134 510.721344,359.736328 
	C494.321045,354.773834 477.717987,357.170959 461.219940,359.564362 
	C451.842651,360.924774 442.516449,362.636261 433.163422,364.166412 
	C432.069885,364.345306 430.920380,364.598877 429.454132,363.583191 
	C434.223938,360.416687 439.484528,359.498047 444.422485,357.880646 
	C448.245544,356.628418 451.660248,355.167175 454.840057,352.423889 
	C459.885895,348.070679 465.812286,344.649323 472.319275,343.029816 
	C477.345612,341.778809 478.440094,338.639038 478.586700,334.321960 
	C478.948395,323.670441 479.318970,313.019043 479.744659,302.369965 
	C479.815125,300.607147 479.283173,298.691345 481.800293,295.787476 
	C482.456604,308.239380 483.046295,319.426819 483.697937,331.789764 
	C485.306763,326.966400 484.749359,322.618134 486.821136,318.049500 
	C489.512146,323.089386 489.588654,327.895782 490.162720,332.412231 
	C490.762848,337.133270 492.429901,338.848511 497.383301,338.841522 
	C510.145172,338.823547 522.003479,342.401245 532.766968,349.416595 
	C534.373657,350.463837 535.795715,352.065430 538.484009,351.904602 
	C539.475220,341.921722 538.044189,331.764618 540.029297,321.871490 
	C540.457092,321.863464 540.884827,321.855438 541.312622,321.847412 
	C541.312622,333.077179 541.312622,344.306915 541.312622,355.536682 
	C541.973633,355.557922 542.634644,355.579163 543.295654,355.600372 
	C543.893250,345.417145 544.490906,335.233887 545.088501,325.050629 
	C545.633240,325.032898 546.177979,325.015167 546.722717,324.997437 
	C547.366516,337.672546 548.010315,350.347656 548.654114,363.022766 
	C549.082458,363.020386 549.510742,363.018005 549.939026,363.015625 
	C550.634460,346.095032 551.329895,329.174438 552.054443,311.546875 
	C554.487549,313.765533 554.043030,316.019684 554.098877,318.046417 
	C554.543884,334.193970 554.939880,350.342926 555.329346,366.491974 
	C555.410583,369.859131 555.377197,373.193359 558.680664,375.385406 
	C560.439880,376.552795 560.322571,378.538239 560.341919,380.376343 
	C560.406494,386.537079 560.610291,392.702209 560.442322,398.856995 
	C560.359985,401.875824 561.615234,403.290222 564.245239,404.411194 
	C571.444458,407.479797 578.464966,410.974182 585.701172,413.947144 
	C589.661316,415.574158 591.804443,417.589264 590.499451,422.182983 
	C589.712463,424.953156 590.994263,428.113373 589.040771,431.382324 
	C586.891113,429.037354 587.584839,426.385681 587.392151,424.205444 
	C587.053833,420.377289 585.547485,418.320343 581.725464,417.174194 
	C575.676392,415.360229 569.824402,412.889557 563.531128,410.551483 
M528.905945,358.520752 
	C533.066345,360.480743 537.226746,362.440765 541.387146,364.400757 
	C518.123169,348.155457 492.830200,344.272064 465.690125,352.178345 
	C487.156647,347.660950 508.226898,347.362274 528.905945,358.520752 
z"/>
<path fill="#000000" opacity="1.000000" stroke="none" 
	d="
M657.086792,640.565674 
	C651.945312,624.123108 656.383484,609.191833 668.855225,601.328796 
	C679.269714,594.762817 690.372620,595.523193 701.561646,599.155029 
	C703.261780,599.706787 704.520081,600.757751 704.533142,602.719910 
	C704.562500,607.155396 704.542358,611.591248 704.542358,616.215576 
	C701.762451,615.710266 701.745911,613.700012 701.056091,612.366516 
	C698.933289,608.262695 696.043213,604.921204 692.105774,602.508057 
	C683.945801,597.507385 674.014404,599.958801 670.062561,608.652161 
	C665.385620,618.940735 665.541931,629.404297 671.899780,639.135803 
	C680.498596,652.297241 697.734680,651.585205 705.491882,637.947510 
	C706.456604,636.251465 706.585510,634.526184 706.850464,632.722046 
	C708.567749,621.028809 716.544128,613.647888 727.940186,613.128174 
	C738.158569,612.662170 747.158264,619.345764 749.813599,629.372620 
	C753.065857,641.653320 747.108887,653.636230 735.904053,657.352783 
	C724.122314,661.260681 713.013489,655.925720 707.897949,643.899536 
	C707.662170,643.345398 707.458008,642.777893 707.005005,641.615906 
	C701.661621,653.281006 693.408936,659.346863 680.823181,658.307495 
	C669.395386,657.363708 661.752991,651.264526 657.086792,640.565674 
M728.524780,655.513306 
	C732.574524,655.016663 734.605896,652.292542 735.599915,648.727356 
	C737.917786,640.414307 738.283142,632.041687 735.819946,623.670593 
	C734.747009,620.024414 733.309814,616.416992 728.783447,616.447876 
	C724.355225,616.478210 722.541565,619.972961 721.581665,623.614502 
	C719.471375,631.619873 719.490662,639.733398 721.453064,647.769897 
	C722.301819,651.245667 723.908997,654.359924 728.524780,655.513306 
z"/>
<path fill="#000000" opacity="1.000000" stroke="none" 
	d="
M581.144531,651.650757 
	C581.570496,653.475708 581.913269,654.903076 582.383484,656.861389 
	C577.027893,656.861389 572.024231,656.861389 566.610352,656.861389 
	C568.651123,647.853577 567.792480,638.924377 567.848145,630.030945 
	C567.887146,623.799561 565.720154,621.198669 560.939819,621.140503 
	C556.061279,621.081238 553.239929,624.163452 553.388794,630.140137 
	C553.606873,638.890259 551.998291,647.770142 555.542114,656.969238 
	C549.882629,657.522339 544.753540,657.527527 540.149292,657.014709 
	C540.740540,637.368652 542.024048,618.229736 539.276611,598.180603 
	C542.873352,596.615845 547.408875,594.971680 553.080322,593.878418 
	C553.080322,602.398315 553.080322,610.415955 553.080322,619.585510 
	C558.080994,615.117493 562.495117,612.501465 568.266418,613.389954 
	C575.801453,614.550110 580.028748,619.202026 580.346802,626.855286 
	C580.684631,634.985596 579.563477,643.158264 581.144531,651.650757 
z"/>
<path fill="#000000" opacity="1.000000" stroke="none" 
	d="
M609.655029,671.451904 
	C610.935913,668.204956 610.887878,665.197510 610.891113,662.206055 
	C610.901367,652.727234 610.894653,643.248352 610.873901,633.769531 
	C610.862671,628.647827 611.482727,623.433289 608.109924,618.442810 
	C613.037903,616.140747 617.629211,614.615967 622.691284,613.447205 
	C623.158936,615.259033 623.509949,616.619019 623.989685,618.477661 
	C628.124512,615.164856 632.202393,612.844910 637.341248,613.307068 
	C646.968811,614.172974 653.189819,621.256348 653.813843,633.167908 
	C654.200195,640.542175 651.869141,647.360840 646.605225,652.750427 
	C641.403625,658.076111 634.903625,659.356567 627.750977,657.832153 
	C626.493286,657.564148 625.325928,656.668640 623.808777,657.325317 
	C622.367004,662.770264 623.980469,668.040466 625.462036,674.094727 
	C620.308228,674.094727 615.586914,674.148438 610.868286,674.059082 
	C609.592529,674.034912 609.392395,672.956238 609.655029,671.451904 
M623.349182,638.453674 
	C623.568542,642.388245 622.589294,646.467102 624.598022,650.188660 
	C625.898132,652.597351 627.585205,654.574341 630.640198,654.745850 
	C633.793152,654.922852 636.323608,653.663635 637.608154,650.896729 
	C641.575684,642.350647 641.930115,633.588440 637.989075,624.949280 
	C636.416687,621.502502 633.400818,619.659607 629.429932,620.463501 
	C625.401672,621.279053 623.737793,624.283020 623.446411,628.036377 
	C623.203186,631.170105 623.365723,634.335388 623.349182,638.453674 
z"/>
<path fill="#000000" opacity="1.000000" stroke="none" 
	d="
M527.515991,654.694519 
	C516.806641,660.536682 506.302155,658.798523 495.785980,655.326050 
	C494.475433,654.893311 493.222626,654.049927 493.119934,652.612000 
	C492.760406,647.576538 492.335632,642.513672 494.425323,637.284485 
	C495.934509,639.933167 497.311584,642.668396 498.979340,645.213135 
	C502.935730,651.250000 508.036591,655.388306 515.823242,654.805481 
	C520.313843,654.469421 523.470520,652.328308 524.532471,647.923096 
	C525.621155,643.406799 524.231384,639.767151 519.891174,637.446960 
	C515.602478,635.154297 510.965881,633.810608 506.445862,632.131897 
	C495.858704,628.199768 491.010437,621.409912 492.325470,612.554688 
	C493.771484,602.817566 500.756378,597.110718 512.134216,596.509766 
	C517.497253,596.226440 522.737610,596.990540 527.867676,598.655823 
	C530.264893,599.434021 531.470276,600.772217 531.328247,603.364380 
	C531.112976,607.293945 531.738831,611.267944 530.848206,615.556458 
	C528.206970,614.577576 528.004639,612.151672 526.969849,610.448914 
	C523.452637,604.661438 519.321289,599.918030 511.737640,600.088135 
	C507.231995,600.189209 503.901215,602.136108 502.604370,606.434143 
	C501.230957,610.985840 503.481995,614.303101 507.559143,616.129578 
	C512.865173,618.506531 518.383728,620.405212 523.722168,622.714661 
	C537.676758,628.751526 539.723938,644.837402 527.515991,654.694519 
z"/>
<path fill="#000000" opacity="1.000000" stroke="none" 
	d="
M359.336792,473.817566 
	C362.492706,484.773499 366.298798,495.158600 367.897278,506.421295 
	C364.990295,506.075531 364.615875,503.977692 363.659729,502.592010 
	C356.050934,491.564941 347.748871,481.329041 335.801880,474.525177 
	C330.654327,471.593689 329.104614,465.963165 327.989105,460.551971 
	C326.877258,455.158417 327.164185,449.652405 327.705566,444.173737 
	C327.924957,441.953156 329.055328,440.989532 331.182739,440.716125 
	C335.298828,440.187134 339.416260,439.629395 343.499390,438.895844 
	C346.695709,438.321594 348.388733,439.414185 349.362366,442.576050 
	C352.540253,452.895905 355.937347,463.148254 359.336792,473.817566 
z"/>
<path fill="#000000" opacity="1.000000" stroke="none" 
	d="
M486.127197,647.712646 
	C486.523224,650.944946 486.901764,653.714478 487.350433,656.997192 
	C482.122498,657.539490 477.105011,657.444763 471.373566,656.995361 
	C474.559296,647.942566 473.553955,639.112488 473.583893,630.357727 
	C473.605286,624.110291 471.038177,621.098877 466.239197,621.130554 
	C461.193787,621.163879 458.010620,624.607422 458.588837,630.630615 
	C459.411652,639.202271 457.284119,647.934387 460.833405,656.933472 
	C455.110199,657.561035 450.099396,657.444275 444.835358,657.038330 
	C446.419281,644.101257 447.231384,631.480042 444.272308,618.113647 
	C448.045776,615.941284 452.720276,614.740295 457.094696,613.544983 
	C459.033752,614.987732 458.438965,617.022583 459.662689,618.509888 
	C464.052887,614.598511 468.937500,612.236328 475.061371,613.594788 
	C480.731049,614.852478 484.147888,618.259155 485.292542,623.854248 
	C486.875854,631.593628 485.745239,639.453186 486.127197,647.712646 
z"/>
<path fill="#000000" opacity="1.000000" stroke="none" 
	d="
M330.973114,654.953491 
	C330.831482,656.237671 330.301636,657.244873 328.861481,657.252380 
	C322.748108,657.284241 316.634491,657.265869 309.535370,657.265869 
	C312.245972,651.789490 311.551147,647.260010 309.555481,642.626587 
	C308.197876,639.474609 306.563110,637.613464 302.915649,638.016724 
	C301.105896,638.216736 299.254425,638.034424 297.421814,638.032654 
	C283.543884,638.019043 279.926208,643.090393 284.493622,656.668274 
	C280.630859,657.820801 276.840057,657.474121 272.850830,656.872742 
	C283.450623,639.289978 288.756561,619.788696 296.673431,601.407654 
	C297.804016,598.782654 299.295380,597.599670 302.277618,597.571411 
	C305.400085,597.541870 306.626709,599.024780 307.642273,601.638733 
	C313.128265,615.759155 318.722168,629.838013 324.335236,643.908752 
	C325.872131,647.761414 327.228394,651.750977 330.729309,654.821289 
	C330.999023,654.989563 330.973114,654.953491 330.973114,654.953491 
M304.759827,630.529846 
	C302.298096,624.318420 299.836334,618.106934 296.954498,610.835510 
	C293.424255,619.157410 290.437531,626.227539 287.990601,634.231079 
	C293.660583,634.971069 298.587738,634.760986 303.498535,634.491760 
	C305.710754,634.370422 305.619781,632.844177 304.759827,630.529846 
z"/>
<path fill="#000000" opacity="1.000000" stroke="none" 
	d="
M437.407318,643.848145 
	C437.764557,648.155212 435.700531,653.011108 441.866669,654.237183 
	C437.449402,659.959900 431.678192,659.869934 424.923004,653.977417 
	C421.339447,657.035889 417.190887,658.744080 412.252380,658.375061 
	C407.921661,658.051514 404.489258,656.578430 402.784241,652.337036 
	C401.014130,647.933838 402.390869,644.165833 405.460266,640.916992 
	C409.080933,637.084656 413.969696,635.912109 418.879639,634.871155 
	C421.291138,634.359863 424.639832,635.416443 424.882935,631.323303 
	C425.130310,627.158386 424.628723,623.278259 420.376099,621.075806 
	C416.162109,618.893372 410.523407,619.863220 406.520050,623.410706 
	C405.716278,624.122986 405.306976,625.513367 403.798218,625.143005 
	C404.211182,619.862244 408.754608,615.144714 415.049896,613.858276 
	C427.005585,611.415100 438.337860,616.690247 437.433350,631.401184 
	C437.188904,635.377625 437.403503,639.382324 437.407318,643.848145 
M415.830902,642.653259 
	C415.634857,643.618408 415.335876,644.575806 415.261780,645.550232 
	C415.022369,648.697510 415.833221,651.351562 419.497314,651.589966 
	C423.313538,651.838257 424.790131,649.353760 424.854980,645.935608 
	C424.904144,643.343567 425.501801,640.666260 424.140717,637.951538 
	C420.764160,637.901062 418.080902,639.096436 415.830902,642.653259 
z"/>
<path fill="#000000" opacity="1.000000" stroke="none" 
	d="
M331.013733,655.006104 
	C331.070496,650.948669 330.271851,646.811218 331.736115,642.508911 
	C334.002380,643.335999 334.285553,645.328613 335.203583,646.743713 
	C338.043884,651.122009 341.608795,654.482361 347.071320,654.933777 
	C350.529388,655.219604 353.509644,654.057800 354.436768,650.380188 
	C355.378479,646.644592 353.280701,644.342407 349.943573,643.109375 
	C347.294037,642.130371 344.541473,641.430847 341.889160,640.458618 
	C332.905945,637.165588 329.285004,631.696777 330.894653,623.996582 
	C332.250793,617.509094 339.922577,612.617859 348.041138,613.097900 
	C349.034180,613.156555 350.016296,613.392761 351.004669,613.538757 
	C361.584717,615.101135 363.081635,617.375000 360.596649,628.218811 
	C358.272003,628.382935 358.278503,626.257629 357.490906,624.983154 
	C355.251526,621.359558 352.578705,618.278564 348.342621,616.910828 
	C344.551636,615.686829 341.613556,616.888245 340.081177,620.401123 
	C338.482788,624.065247 341.118103,626.047913 343.987915,627.293152 
	C347.489502,628.812500 351.245941,629.744080 354.749023,631.260498 
	C361.604034,634.228027 364.739258,639.212158 364.100983,645.589722 
	C363.467529,651.918823 358.778473,656.908020 351.574127,657.962463 
	C344.769348,658.958374 337.928864,658.811584 331.302429,655.133057 
	C330.973114,654.953491 330.999023,654.989563 331.013733,655.006104 
z"/>
<path fill="#000000" opacity="1.000000" stroke="none" 
	d="
M386.913696,617.961914 
	C385.352966,617.332397 384.127380,616.645996 382.843292,616.509338 
	C379.694000,616.174194 377.254700,617.480652 376.162659,620.524414 
	C375.051758,623.620667 376.652313,625.787231 379.344147,626.942871 
	C383.456451,628.708313 387.757385,630.032227 391.882599,631.770508 
	C395.525970,633.305664 398.299774,635.750000 399.485413,639.801758 
	C402.119171,648.802490 396.950195,656.709351 387.061737,658.075256 
	C382.635284,658.686707 378.160919,658.439148 373.673889,657.567688 
	C368.747131,656.610901 366.228088,654.319580 366.953003,649.102966 
	C367.241211,647.028870 366.479126,644.785034 368.084747,642.656128 
	C370.176361,643.468567 370.611542,645.550964 371.613800,647.106201 
	C374.457397,651.518677 378.127045,654.710876 383.609009,654.985046 
	C386.861603,655.147644 389.649353,654.011414 390.523865,650.537598 
	C391.445892,646.875183 389.734467,644.399780 386.281036,643.164673 
	C383.782593,642.271057 381.203918,641.604370 378.689484,640.752502 
	C369.475006,637.630859 365.361023,631.831421 366.962708,624.289734 
	C368.462067,617.229797 376.187653,612.422180 384.821136,613.200012 
	C385.978516,613.304321 387.127747,613.509277 388.277008,613.691101 
	C397.411560,615.135620 399.493622,618.852722 396.098877,628.970215 
	C393.415314,624.729858 391.375427,620.473694 386.913696,617.961914 
z"/>
<path fill="#000000" opacity="1.000000" stroke="none" 
	d="
M499.881653,381.738861 
	C490.504425,380.940094 481.530914,381.284149 472.576599,381.458191 
	C468.672943,381.534058 467.194489,379.879242 466.836639,376.358307 
	C466.484650,372.894928 466.351196,369.350281 465.466980,366.014923 
	C464.351013,361.805328 465.933807,360.267487 469.872589,359.768463 
	C478.600891,358.662598 487.288269,357.520508 496.081390,359.339783 
	C499.776428,360.104279 501.424927,361.912079 501.390442,365.801788 
	C501.356842,369.595673 502.051971,373.390961 502.278473,377.194458 
	C502.382019,378.933807 502.814514,381.000397 499.881653,381.738861 
z"/>
<path fill="#000000" opacity="1.000000" stroke="none" 
	d="
M639.147949,713.143372 
	C636.412537,711.058594 635.008606,708.480469 634.061218,705.230652 
	C629.131714,715.612732 623.211365,717.653564 613.315796,712.189575 
	C613.315796,714.945251 613.328491,717.350708 613.311096,719.755981 
	C613.300537,721.226501 612.918518,722.413635 611.096497,722.386902 
	C609.387573,722.361755 608.752197,721.329529 608.747681,719.808289 
	C608.721558,710.988953 608.718384,702.169678 608.712219,693.350342 
	C608.710693,691.157776 610.625427,689.698608 611.792664,690.882996 
	C614.317139,693.444580 615.916321,691.479431 617.943909,690.671814 
	C624.422180,688.091370 629.761414,691.086060 634.057434,700.073120 
	C635.550964,695.489075 637.860596,692.049866 642.235962,690.444214 
	C646.640991,688.827820 650.336548,690.466431 653.968445,692.841797 
	C654.990295,691.437500 655.897339,689.898926 657.929871,690.850647 
	C659.466858,691.570435 659.257019,693.036682 659.263428,694.324890 
	C659.290588,699.816406 659.281982,705.308533 659.225525,710.799805 
	C659.212463,712.074524 659.454224,713.523254 657.865967,714.242859 
	C655.822571,715.168823 654.957520,713.563293 653.842041,712.250305 
	C649.253601,715.779053 644.482788,716.490784 639.147949,713.143372 
M617.862976,709.735291 
	C623.093140,711.288391 627.164124,709.391418 628.446045,704.803894 
	C629.684448,700.372070 627.073364,695.759521 622.738220,694.720764 
	C618.799805,693.776917 614.483337,696.797180 613.657410,701.206726 
	C613.007324,704.677612 614.555115,707.291931 617.862976,709.735291 
M639.193237,702.517578 
	C639.902649,707.947998 642.534180,710.775024 646.739868,710.624756 
	C650.699341,710.483276 653.701233,707.341797 653.936768,703.093201 
	C654.180420,698.698669 651.326233,695.077637 647.207764,694.556335 
	C643.478088,694.084167 640.397705,696.851135 639.193237,702.517578 
z"/>
<path fill="#000000" opacity="1.000000" stroke="none" 
	d="
M602.365601,650.352417 
	C602.567444,652.746643 603.980347,654.497498 603.299500,656.897400 
	C598.471130,657.782654 593.563171,657.203430 587.400513,657.180176 
	C590.187683,650.427856 589.723999,644.016602 589.646362,637.637939 
	C589.568176,631.213501 590.694519,624.621338 586.958679,618.630066 
	C590.664185,615.870056 594.838440,615.216675 598.767090,614.068542 
	C602.153687,613.078857 602.150818,615.756226 602.168762,617.949036 
	C602.255737,628.604370 602.283386,639.260254 602.365601,650.352417 
z"/>
<path fill="#000000" opacity="1.000000" stroke="none" 
	d="
M458.025696,382.220398 
	C451.423279,382.360687 445.453796,383.620300 439.363831,385.381500 
	C437.337799,380.471100 436.721222,375.534302 435.641479,370.723785 
	C435.161346,368.584778 436.445831,367.678131 438.226013,367.210419 
	C445.129089,365.396545 452.033417,363.586945 458.947815,361.816956 
	C460.991180,361.293884 461.995819,362.185699 462.348419,364.279449 
	C463.119781,368.860291 464.231049,373.388123 464.889130,377.982635 
	C465.691833,383.586639 461.129059,381.549438 458.025696,382.220398 
z"/>
<path fill="#000000" opacity="1.000000" stroke="none" 
	d="
M473.989563,713.893005 
	C476.544678,714.901855 476.955261,717.709717 479.419128,718.528564 
	C484.672943,720.274597 488.740082,717.850342 490.365112,711.655151 
	C488.962952,711.102966 488.375946,712.484009 487.456818,712.927551 
	C482.296906,715.417297 476.447754,714.310669 472.955994,710.092529 
	C469.118958,705.457275 469.006775,699.160034 472.677460,694.458130 
	C476.350647,689.753052 481.867950,688.586487 487.419800,691.232910 
	C488.374054,691.687805 488.926147,693.027039 490.395142,692.476746 
	C495.244202,690.660645 495.286224,690.692139 495.308563,695.748657 
	C495.332062,701.072388 495.427307,706.401428 495.236023,711.718933 
	C495.061554,716.569031 492.932831,720.496155 488.257111,722.318237 
	C483.548309,724.153259 478.754730,724.100403 474.493378,720.955933 
	C471.147186,718.486816 470.924286,715.877502 473.989563,713.893005 
M482.509521,709.657349 
	C486.010071,709.480347 488.595032,707.880249 489.604919,704.472290 
	C490.452240,701.612732 490.050385,698.798462 487.629150,696.733887 
	C485.205048,694.667053 482.516693,693.769775 479.385651,695.372314 
	C476.373962,696.913757 475.026123,699.308167 475.258667,702.638428 
	C475.542938,706.710266 477.860992,708.904907 482.509521,709.657349 
z"/>
<path fill="#000000" opacity="1.000000" stroke="none" 
	d="
M566.082031,696.346924 
	C566.316284,692.437134 566.555725,689.041626 571.548828,691.697693 
	C571.973938,691.923767 572.853699,691.556152 573.402100,691.249573 
	C578.596741,688.344849 582.950195,689.871704 586.770508,693.889099 
	C588.790588,692.742554 590.155884,690.988525 592.277954,690.275085 
	C597.772827,688.427734 603.280396,691.500549 604.051758,697.550842 
	C604.636230,702.135803 604.298401,706.842651 604.299072,711.495239 
	C604.299255,712.911255 603.868835,714.150330 602.056152,714.141785 
	C600.265564,714.133423 599.822144,712.923401 599.784363,711.494019 
	C599.696533,708.169434 599.757874,704.840210 599.635132,701.517395 
	C599.510010,698.133362 598.585693,694.757507 594.627380,694.671143 
	C590.504089,694.581360 588.470215,697.567261 588.218506,701.529358 
	C588.007874,704.844788 588.094910,708.178345 588.010193,711.502869 
	C587.967834,713.165894 587.393677,714.487671 585.433655,714.471375 
	C583.480408,714.455139 582.916077,713.128662 582.887085,711.466614 
	C582.826172,707.974609 582.821716,704.481812 582.775452,700.989563 
	C582.731079,697.643677 581.552124,694.819092 577.876526,694.632324 
	C574.160034,694.443481 572.032349,697.072205 571.517151,700.461182 
	C571.046692,703.555786 571.399719,706.768066 571.246521,709.921509 
	C571.157654,711.750366 571.936462,714.424011 568.763000,714.322815 
	C565.856628,714.230042 566.223450,711.633850 566.157715,709.772705 
	C566.005066,705.453308 566.089722,701.125427 566.082031,696.346924 
z"/>
<path fill="#000000" opacity="1.000000" stroke="none" 
	d="
M380.939575,715.773315 
	C380.931793,708.664978 380.837769,702.024536 380.951294,695.387573 
	C381.035675,690.453003 381.804657,689.944397 386.153839,692.053955 
	C387.470245,692.692444 387.937317,691.852600 388.708984,691.517334 
	C395.014954,688.776855 400.269470,689.816406 403.764374,694.552917 
	C407.309601,699.357849 407.119110,706.669495 403.329254,711.249512 
	C399.767487,715.553833 394.558716,716.323120 388.478912,713.462585 
	C388.056946,713.264038 387.573273,713.196655 387.072144,713.055298 
	C385.694000,714.709900 386.445770,716.602173 386.264465,718.334106 
	C386.078949,720.106506 386.528931,722.313171 383.848663,722.438538 
	C380.841278,722.579224 381.126556,720.183716 380.970062,718.233704 
	C380.917084,717.573547 380.949188,716.906616 380.939575,715.773315 
M386.616211,700.284668 
	C385.644165,704.998779 387.260254,708.480408 391.802765,710.174194 
	C395.471100,711.542114 398.263794,709.794434 400.208710,706.761292 
	C402.575104,703.070923 401.437653,698.207092 397.867554,695.883545 
	C393.772980,693.218506 390.342377,694.380066 386.616211,700.284668 
z"/>
<path fill="#000000" opacity="1.000000" stroke="none" 
	d="
M413.854950,715.867920 
	C413.862305,717.062622 413.907623,717.899719 413.837921,718.727173 
	C413.685150,720.540222 413.818634,722.672119 411.044678,722.462646 
	C408.681366,722.284119 408.756317,720.397583 408.748749,718.735352 
	C408.711639,710.573364 408.699799,702.411133 408.731934,694.249146 
	C408.736908,692.980103 408.485565,691.511475 410.106110,690.822815 
	C412.147003,689.955627 413.050751,691.459045 414.004974,692.739380 
	C421.268738,688.640869 426.488159,689.011230 430.696106,693.865845 
	C434.742432,698.533997 435.046936,705.642151 431.408417,710.494080 
	C427.440765,715.784912 422.140320,716.548218 414.464752,712.916809 
	C413.096344,713.490356 413.990082,714.630188 413.854950,715.867920 
M414.060486,701.723450 
	C414.474396,707.285950 416.794983,710.325439 420.840302,710.603455 
	C424.593719,710.861450 428.256958,707.702332 428.726013,703.803040 
	C429.275635,699.234253 426.997253,695.732666 422.823273,694.731323 
	C418.951721,693.802490 416.026428,695.902588 414.060486,701.723450 
z"/>
<path fill="#000000" opacity="1.000000" stroke="none" 
	d="
M336.519836,689.559448 
	C333.935486,686.665100 331.077332,685.933472 327.738373,687.062439 
	C325.886200,687.688721 324.427368,688.678955 324.316742,690.845520 
	C324.204865,693.036438 325.561920,694.302429 327.406982,694.861816 
	C330.096222,695.677063 332.909454,696.079834 335.606537,696.873535 
	C340.092834,698.193726 343.439301,700.629517 343.300079,705.918701 
	C343.176697,710.604553 340.175354,713.812805 334.891724,714.998779 
	C328.658264,716.397949 322.220764,714.438538 319.643005,710.231873 
	C318.720856,708.726929 317.243805,706.740601 319.087585,705.340942 
	C321.109680,703.805847 322.453491,705.322571 323.724915,707.288086 
	C325.998047,710.802002 330.941528,711.800537 334.840363,710.012146 
	C336.628540,709.191895 337.882599,708.022827 337.908234,705.891968 
	C337.933685,703.776306 336.835846,702.315613 334.965576,701.718628 
	C331.969147,700.762207 328.846649,700.204834 325.837921,699.281677 
	C321.663910,698.000916 318.687592,695.411072 318.855377,690.733398 
	C319.020447,686.133362 321.961456,683.680237 326.260986,682.521545 
	C331.989319,680.978027 338.356995,682.542908 340.707947,686.403992 
	C341.600891,687.870483 343.133026,689.731934 341.212311,691.290466 
	C339.408020,692.754517 337.806213,691.669434 336.519836,689.559448 
z"/>
<path fill="#000000" opacity="1.000000" stroke="none" 
	d="
M511.750427,686.743103 
	C520.751526,679.844299 530.983032,680.632446 536.168091,688.356140 
	C537.179077,689.862183 538.181946,691.395813 537.924866,693.348328 
	C535.367615,695.077209 534.023315,693.756226 532.529602,691.829224 
	C528.076477,686.084534 520.482239,685.326294 515.585083,689.973938 
	C510.879364,694.439941 510.875397,703.013428 515.577026,707.505493 
	C520.646057,712.348511 527.823364,711.570251 532.440613,705.539185 
	C533.629578,703.986206 534.768372,702.271301 536.806335,703.433594 
	C539.210876,704.804871 537.415283,706.698059 536.648987,708.149597 
	C533.299988,714.493164 524.354126,717.130615 516.969788,714.074219 
	C509.684113,711.058594 505.239624,702.282166 507.249573,694.812378 
	C508.037872,691.882751 509.359802,689.220642 511.750427,686.743103 
z"/>
<path fill="#000000" opacity="1.000000" stroke="none" 
	d="
M345.086304,707.474976 
	C345.818665,699.928833 345.420380,692.783020 345.341492,685.636353 
	C345.323273,683.984741 345.003082,681.613892 347.939758,681.808350 
	C350.709564,681.991760 350.219879,684.187561 350.301605,685.928589 
	C350.386353,687.733826 350.320465,689.546082 350.320465,691.261353 
	C350.984467,691.449158 351.334381,691.680603 351.574219,691.596863 
	C363.041962,687.594971 368.175598,691.277344 368.254639,703.593262 
	C368.270691,706.091370 368.258270,708.589539 368.256531,711.087708 
	C368.255280,712.910156 367.885010,714.513733 365.603943,714.482056 
	C363.304840,714.450134 363.035950,712.719360 362.998260,710.978943 
	C362.926056,707.649536 362.922821,704.318481 362.908295,700.987976 
	C362.893433,697.574341 361.554535,694.963867 357.945160,694.625977 
	C354.611908,694.313782 352.289001,696.171387 351.038391,699.291260 
	C349.746918,702.513062 350.641022,705.894714 350.290527,709.180176 
	C350.070160,711.246155 351.388397,714.518188 347.623474,714.453613 
	C344.091309,714.393066 346.042450,711.109558 345.315155,709.365662 
	C345.129913,708.921509 345.173798,708.381836 345.086304,707.474976 
z"/>
<path fill="#000000" opacity="1.000000" stroke="none" 
	d="
M564.108215,703.739502 
	C561.991577,711.293396 558.151611,714.943420 552.356445,715.277100 
	C546.938599,715.589111 542.031494,712.650757 539.987854,707.710876 
	C537.876404,702.607117 538.599243,697.797913 542.385193,693.802917 
	C545.995300,689.993469 550.517700,688.684814 555.614197,690.555237 
	C561.525757,692.724670 563.970947,697.291321 564.108215,703.739502 
M545.278320,698.030518 
	C543.401733,701.993469 543.395752,705.777344 546.883972,708.837646 
	C549.338562,710.991150 552.214844,711.312805 555.140381,709.562683 
	C558.636597,707.471252 559.374939,704.203186 558.693054,700.546448 
	C557.564270,694.493042 551.103943,692.966492 545.278320,698.030518 
z"/>
<path fill="#000000" opacity="1.000000" stroke="none" 
	d="
M451.186096,691.765503 
	C461.973602,687.287048 467.916687,691.065613 468.221741,702.418457 
	C468.293060,705.072693 468.282776,707.731873 468.213806,710.386230 
	C468.167267,712.177368 468.388062,714.330017 465.704926,714.413574 
	C463.020111,714.497131 463.055725,712.412598 463.009308,710.571167 
	C462.929810,707.418457 462.911163,704.263733 462.904419,701.109802 
	C462.896637,697.485413 461.485443,694.764526 457.606781,694.589233 
	C453.795593,694.416931 451.204071,696.682129 450.623993,700.373779 
	C450.113647,703.621704 450.408813,706.992004 450.278534,710.305542 
	C450.209839,712.052551 450.669220,714.310181 447.941650,714.428223 
	C444.885986,714.560364 445.159760,712.094604 445.155640,710.186279 
	C445.144165,704.878174 445.184601,699.565430 445.406647,694.262939 
	C445.580200,690.118408 447.588470,689.384705 451.186096,691.765503 
z"/>
<path fill="#000000" opacity="1.000000" stroke="none" 
	d="
M703.725342,692.587097 
	C705.209839,690.276367 706.867126,690.576294 709.205505,691.488098 
	C705.605103,700.968567 702.329590,710.345520 697.536194,719.074158 
	C695.711975,722.396057 692.212158,722.776917 688.749451,722.555603 
	C687.537048,722.478088 686.371826,722.043091 686.358459,720.539001 
	C686.347656,719.331848 687.276733,719.013000 688.297729,718.664307 
	C695.437256,716.226013 695.843872,715.217346 692.995178,708.424133 
	C690.636658,702.799927 688.393982,697.127197 686.067627,691.396118 
	C689.436035,689.715454 691.102234,690.753784 692.268127,693.598022 
	C693.938843,697.674072 695.154968,701.979065 697.992126,706.354492 
	C700.023254,701.456970 701.788147,697.201477 703.725342,692.587097 
z"/>
<path fill="#000000" opacity="1.000000" stroke="none" 
	d="
M668.395081,701.749756 
	C668.330444,705.170288 668.328308,708.164734 668.258606,711.157654 
	C668.221558,712.749451 667.909851,714.235840 665.804260,714.134277 
	C664.013733,714.047852 663.706909,712.700500 663.697632,711.323242 
	C663.657288,705.335510 663.681824,699.347351 663.680969,693.359314 
	C663.680725,691.530884 664.927551,689.921021 666.334900,690.792969 
	C669.204529,692.570801 671.292175,690.834778 673.692322,690.163330 
	C679.522644,688.532349 685.016052,691.765076 685.859741,697.865845 
	C686.470093,702.279541 686.170776,706.820984 686.244080,711.305969 
	C686.270752,712.934204 685.872009,714.337830 683.869446,714.432251 
	C681.481567,714.544800 681.196289,712.832947 681.203369,711.092896 
	C681.214844,708.270996 681.628906,705.430115 681.411682,702.633118 
	C681.125122,698.942383 680.626343,694.867920 675.741516,694.592529 
	C671.324280,694.343506 669.273926,697.340149 668.395081,701.749756 
z"/>
<path fill="#000000" opacity="1.000000" stroke="none" 
	d="
M590.239746,597.464478 
	C593.886353,594.193787 597.430908,594.046143 600.735901,597.054260 
	C603.112122,599.217041 603.944336,602.047729 602.410950,605.160767 
	C600.711670,608.610596 597.786194,609.774841 594.168274,609.161743 
	C589.327148,608.341309 587.590332,603.493225 590.239746,597.464478 
z"/>
<path fill="#000000" opacity="1.000000" stroke="none" 
	d="
M376.912689,713.065491 
	C374.017212,715.418396 372.196075,714.490784 372.062042,711.358093 
	C371.813660,705.553406 371.965118,699.730103 372.015106,693.915161 
	C372.030640,692.112183 372.582458,690.541565 374.834656,690.628113 
	C377.230438,690.720276 377.222107,692.556030 377.215210,694.233398 
	C377.189941,700.379944 377.108063,706.526306 376.912689,713.065491 
z"/>
<path fill="#000000" opacity="1.000000" stroke="none" 
	d="
M435.951843,705.878052 
	C435.940308,702.085876 435.847107,698.769348 435.945923,695.458557 
	C436.007080,693.408386 435.532867,690.672058 438.799347,690.709900 
	C441.881775,690.745667 441.180023,693.366455 441.210419,695.204102 
	C441.292664,700.174011 441.270142,705.146973 441.194397,710.117310 
	C441.165619,712.005859 441.655853,714.490479 438.524292,714.369202 
	C435.938507,714.269165 436.030731,712.153870 435.946777,710.332275 
	C435.885803,709.009766 435.945404,707.681702 435.951843,705.878052 
z"/>
<path fill="#000000" opacity="1.000000" stroke="none" 
	d="
M377.118652,682.585083 
	C377.782867,685.690674 376.575134,687.057068 373.822144,686.540771 
	C372.164429,686.229858 371.307739,684.744751 371.978882,683.163025 
	C373.072784,680.584778 374.890381,680.348145 377.118652,682.585083 
z"/>
<path fill="#000000" opacity="1.000000" stroke="none" 
	d="
M439.429413,686.591248 
	C436.357819,686.549255 435.096558,685.191895 436.240997,682.573975 
	C436.882599,681.106445 438.485565,680.454468 439.921661,681.484924 
	C442.140503,683.077209 442.199921,684.883118 439.429413,686.591248 
z"/>
</svg>